<svg xmlns="http://www.w3.org/2000/svg" version="1.1" xmlns:xlink="http://www.w3.org/1999/xlink" xmlns:svgjs="http://svgjs.dev/svgjs" width="1000" height="1000" viewBox="0 0 1000 1000"><rect width="1000" height="1000" fill="#ffffff"></rect><g transform="matrix(0.7,0,0,0.7,149.57581649065537,400.42749822362896)"><svg viewBox="0 0 396 113" data-background-color="#ffffff" preserveAspectRatio="xMidYMid meet" height="285" width="1000" xmlns="http://www.w3.org/2000/svg" xmlns:xlink="http://www.w3.org/1999/xlink"><defs></defs><g id="tight-bounds" transform="matrix(1,0,0,1,0.2399666710006727,-0.10053784095273954)"><svg viewBox="0 0 395.52 113.2010756819055" height="113.2010756819055" width="395.52"><g><svg viewBox="0 0 395.52 113.2010756819055" height="113.2010756819055" width="395.52"><g><svg viewBox="0 0 395.52 113.2010756819055" height="113.2010756819055" width="395.52"><g><svg viewBox="0 0 395.52 113.2010756819055" height="113.2010756819055" width="395.52"><g><svg viewBox="0 0 395.52 113.2010756819055" height="113.2010756819055" width="395.52"><g transform="matrix(1,0,0,1,0,0)"><svg width="395.52" viewBox="3.9499988555908203 -34.25 260.2999572753906 71.5" height="113.2010756819055" data-palette-color="#fa7b61"><svg></svg><svg></svg><g class="undefined-text-0" data-fill-palette-color="primary" id="text-0"><path d="M25.55 0h-21.6v-34.25h21.6v4.85h-16.05v9.7h13.05v4.8h-13.05v10h16.05zM50.8-4.95v4.95h-19.2v-34.25h5.55v29.3zM76.95 0h-21.6v-34.25h21.6v4.85h-16.05v9.7h13.05v4.8h-13.05v10h16.05zM88.55-13.95v13.95h-5.55v-34.25h5.55v15.45l5.1-0.4 7-15.05h6.35l-8.45 17.2 8.8 17.05h-6.45l-7.25-14.3zM118.6-29.3h-9.75v-4.95h25v4.95h-9.65v29.3h-5.6zM152.05-12.2h-8.05v12.2h-5.55v-34.25h13c7.733 0 11.6 3.633 11.6 10.9v0c0 4.867-1.867 8.167-5.6 9.9v0l5.65 13.45h-6.1zM157.35-23.3v0c0-4.1-1.967-6.15-5.9-6.15v0h-7.45v12.45h7.55c2 0 3.467-0.577 4.4-1.73 0.933-1.147 1.4-2.67 1.4-4.57zM174.9 0h-5.55v-34.25h5.55zM188.35-13.95v13.95h-5.55v-34.25h5.55v15.45l5.1-0.4 7-15.05h6.35l-8.45 17.2 8.8 17.05h-6.45l-7.25-14.3zM233.55 0h-21.6v-34.25h21.6v4.85h-16.05v9.7h13.05v4.8h-13.05v10h16.05zM253.2-12.2h-8.05v12.2h-5.55v-34.25h13c7.733 0 11.6 3.633 11.6 10.9v0c0 4.867-1.867 8.167-5.6 9.9v0l5.65 13.45h-6.1zM258.5-23.3v0c0-4.1-1.967-6.15-5.9-6.15v0h-7.45v12.45h7.55c2 0 3.467-0.577 4.4-1.73 0.933-1.147 1.4-2.67 1.4-4.57z" data-fill-palette-color="primary" fill="#fa7b61" opacity="1"></path><path d="M9.5 37.25h-5.55v-34.25h21.25v4.85h-15.7v11.55h13.05v4.85h-13.05zM35.95 37.25h-5.55v-34.25h5.55zM57.45 25.05h-8.05v12.2h-5.55v-34.25h13c7.733 0 11.6 3.633 11.6 10.9v0c0 4.867-1.867 8.167-5.6 9.9v0l5.65 13.45h-6.1zM62.75 13.95v0c0-4.1-1.967-6.15-5.9-6.15v0h-7.45v12.45h7.55c2 0 3.467-0.577 4.4-1.73 0.933-1.147 1.4-2.67 1.4-4.57zM80.3 37.25h-5.55v-34.25h9.65l7.65 26.75 7.65-26.75h9.7v34.25h-5.6v-28.1h-0.75l-8.1 26.7h-5.8l-8.1-26.7h-0.75zM119.85 37.25h-5.55l8.45-34.25h11.05l8.5 34.25h-5.6l-1.85-7.35h-13.15zM129.55 7.65h-2.5l-4.25 17.35h10.95z" data-fill-palette-color="primary" fill="#fa7b61" opacity="1"></path></g></svg></g></svg></g></svg></g></svg></g></svg></g></svg><rect width="395.52" height="113.2010756819055" fill="none" stroke="none" visibility="hidden"></rect></g></svg></g></svg>